<svg xmlns="http://www.w3.org/2000/svg" width="78" height="78" viewBox="0 0 78 78" version="1.1">
    <g stroke="none" stroke-width="1" fill="none" fill-rule="evenodd">
        <g transform="translate(-421.000000, -114.000000)">
            <g transform="translate(421.000000, 114.000000)">
                <path d="M75 36.9L56.4 36.9C55.1 36.9 53.8 37.9 53.5 39.2L45.3 62.3 34.9 2.7C34.2-0.9 29.4-0.9 28.4 2.4L19.6 36.9 3.3 36.9C1.3 36.9 0 38.2 0 40.2 0 42.1 1.3 43.4 3.3 43.4L21.9 43.4C23.5 43.4 24.8 42.5 25.1 40.8L30.7 18.7 40.4 75.3C41.1 78.6 45.7 78.9 46.6 76L58.4 43.4 74.7 43.4C76.6 43.4 78 42.1 78 40.2 78.3 38.2 77 36.9 75 36.9Z" fill="#0F93FC"/><circle fill="#2ECC71" cx="66" cy="21" r="9"/>
            </g>
        </g>
    </g>
</svg>
